<svg xmlns="http://www.w3.org/2000/svg" width="512" height="487" viewBox="0 0 512 487" version="1.1">
  <defs>
        <linearGradient id="gradient" x1="0" y1="0" x2="0" y2="1">
            <stop offset="0%" stop-color="#FFD1DC" />
            <stop offset="100%" stop-color="#FA7275" />
            <!-- <stop offset="0%" stop-color="#3eb075" />
            <stop offset="100%" stop-color="#35abcf" /> -->
			<!-- <stop offset="0%" stop-color="#00AEEF" />
            <stop offset="100%" stop-color="#0033A0" /> -->
        </linearGradient>
    </defs>
	<path d="M 180 5.994 C 171.439 6.916, 160.034 9.755, 152 12.964 C 146.575 15.131, 133.445 21.717, 131.500 23.248 C 130.950 23.680, 127.350 26.372, 123.500 29.229 C 101.484 45.569, 87.394 67.439, 78.872 98.500 C 76.745 106.250, 77.041 141.780, 79.291 148.932 C 80.231 151.919, 81 154.676, 81 155.058 C 81 155.441, 75.713 155.970, 69.250 156.235 C 61.963 156.533, 55.601 157.366, 52.500 158.427 C 45.870 160.697, 35.741 165.671, 33.387 167.813 C 32.349 168.757, 29.370 171.258, 26.768 173.371 C 13.764 183.925, 3.952 205.461, 4.020 223.299 C 4.030 226.160, 4.654 231.875, 5.406 236 C 6.728 243.253, 7.258 245.243, 9 249.500 C 9.450 250.600, 10.074 252.175, 10.387 253 C 11.737 256.568, 16.847 264.297, 21.108 269.217 C 27.992 277.165, 37.335 283.851, 47 287.744 C 48.375 288.298, 50.715 289.237, 52.201 289.832 C 56.490 291.548, 70.817 293.137, 79 292.805 L 86.500 292.500 86.759 239.766 L 87.018 187.032 90.759 185.131 C 97.326 181.796, 121.713 173.011, 131.774 170.357 C 164.044 161.843, 202.199 157.044, 237.850 157.014 L 255.200 157 258.600 160.400 C 261.451 163.251, 262 164.521, 262 168.264 C 262 177.275, 255.983 179.986, 235.884 180.028 C 223.557 180.055, 189.163 182.309, 184.500 183.396 C 183.400 183.653, 178.900 184.388, 174.500 185.030 C 170.100 185.671, 163.125 186.885, 159 187.727 C 154.875 188.569, 149.700 189.616, 147.500 190.054 C 145.300 190.491, 141.700 191.358, 139.500 191.981 C 137.300 192.603, 134.150 193.472, 132.500 193.910 C 123.533 196.295, 112.341 200.462, 111.250 201.823 C 109.707 203.747, 109.533 269.803, 110.997 297.376 C 112.539 326.399, 117.365 345.034, 129.645 369.381 C 141.754 393.388, 167.329 424.308, 189.222 441.408 C 206.090 454.583, 214.622 460.410, 232.420 470.907 C 238.453 474.465, 249.361 479.960, 250.435 479.981 C 251.423 480.001, 263.176 474.074, 268.407 470.918 C 270.108 469.891, 273.249 468.027, 275.386 466.776 C 279.648 464.279, 280.434 463.791, 286.922 459.609 C 289.353 458.041, 291.828 456.358, 292.422 455.869 C 293.015 455.380, 297.622 451.933, 302.660 448.209 C 340.561 420.195, 369.939 381.674, 382.518 343.500 C 387.262 329.103, 389.876 314.586, 389.947 302.250 L 390 293 411.776 293 C 438.028 293, 455.738 291.080, 459.450 287.831 C 459.972 287.374, 461.058 287, 461.862 287 C 464.772 287, 479.283 277.591, 484.826 272.110 C 491.058 265.949, 492.501 264.204, 495.671 259 C 505.088 243.539, 508.811 228.161, 506.917 212.546 C 505.971 204.749, 503.182 194.120, 500.738 189 C 497.730 182.696, 490.613 172.978, 485.313 167.937 C 476.086 159.160, 469.104 154.857, 456.935 150.449 C 450.101 147.973, 448.288 147.756, 434.500 147.761 C 420.922 147.766, 418.789 148.014, 412 150.376 C 407.875 151.812, 404.387 152.989, 404.250 152.993 C 404.113 152.997, 403.991 151.088, 403.980 148.750 C 403.930 137.879, 399.186 121.416, 393.897 113.756 C 390.946 109.484, 380.307 98.913, 376.500 96.470 C 366.866 90.290, 352.802 85.988, 342.323 86.015 C 335.635 86.033, 323.024 88.975, 316.848 91.959 C 314.525 93.082, 312.146 93.993, 311.562 93.984 C 310.978 93.975, 309.253 90.020, 307.728 85.194 C 305.025 76.639, 295.996 58.853, 292.664 55.522 C 291.749 54.606, 291 53.419, 291 52.883 C 291 52.347, 286.163 47.054, 280.250 41.120 C 268.892 29.721, 259.439 22.798, 246.831 16.648 C 238.163 12.419, 237.140 12.064, 221 7.679 C 214.335 5.868, 190.333 4.882, 180 5.994 M 240.643 249.043 C 235.187 250.415, 231.227 252.778, 225.669 257.979 C 215.135 267.838, 211.565 281.624, 216.160 294.708 C 219.120 303.136, 224.294 309.714, 231.730 314.500 C 238.429 318.812, 239.008 320.151, 236.375 325.241 C 235.482 326.969, 234.397 329.534, 233.965 330.942 C 233.532 332.349, 231.748 337.325, 230 342 C 228.252 346.675, 226.454 351.625, 226.004 353 C 225.554 354.375, 223.616 359.663, 221.697 364.750 L 218.207 374 250.710 374 C 281.279 374, 283.170 373.896, 282.481 372.250 C 282.078 371.288, 280.873 368.025, 279.804 365 C 278.734 361.975, 277.472 358.600, 277 357.500 C 276.528 356.400, 274.933 352.125, 273.456 348 C 269.414 336.717, 265.408 325.832, 264.165 322.759 C 262.654 319.024, 263.438 317.557, 268.056 315.475 C 273.172 313.168, 281.446 304.373, 284.223 298.291 C 286.903 292.422, 287.378 277.650, 285.070 272 C 278.978 257.092, 267.951 249.070, 252.656 248.420 C 248.170 248.230, 242.764 248.510, 240.643 249.043" stroke="none"  fill="url(#gradient)" fill-rule="evenodd"></path>
</svg>