<svg xmlns="http://www.w3.org/2000/svg" width="250" height="50" viewBox="0 0 2400 485" version="1.1">
    <defs>
        <linearGradient id="gradient" x1="0" y1="0" x2="0" y2="1">
			<stop offset="0%" stop-color="#FFD1DC" />
            <stop offset="100%" stop-color="#FA7275" />
            <!-- <stop offset="0%" stop-color="#3eb075" />
            <stop offset="100%" stop-color="#35abcf" /> -->
			<!-- <stop offset="0%" stop-color="#00AEEF" />
            <stop offset="100%" stop-color="#0033A0" /> -->
        </linearGradient>
    </defs>
    <path d="M 180 5.994 C 171.439 6.916, 160.034 9.755, 152 12.964 C 146.575 15.131, 133.445 21.717, 131.500 23.248 C 130.950 23.680, 127.350 26.372, 123.500 29.229 C 101.484 45.569, 87.394 67.439, 78.872 98.500 C 76.745 106.250, 77.041 141.780, 79.291 148.932 C 80.231 151.919, 81 154.676, 81 155.058 C 81 155.441, 75.713 155.970, 69.250 156.235 C 61.963 156.533, 55.601 157.366, 52.500 158.427 C 45.870 160.697, 35.741 165.671, 33.387 167.813 C 32.349 168.757, 29.370 171.258, 26.768 173.371 C 13.764 183.925, 3.952 205.461, 4.020 223.299 C 4.030 226.160, 4.654 231.875, 5.406 236 C 6.728 243.253, 7.258 245.243, 9 249.500 C 9.450 250.600, 10.074 252.175, 10.387 253 C 11.737 256.568, 16.847 264.297, 21.108 269.217 C 27.992 277.165, 37.335 283.851, 47 287.744 C 48.375 288.298, 50.715 289.237, 52.201 289.832 C 56.490 291.548, 70.817 293.137, 79 292.805 L 86.500 292.500 86.759 239.766 L 87.018 187.032 90.759 185.131 C 97.326 181.796, 121.713 173.011, 131.774 170.357 C 164.044 161.843, 202.199 157.044, 237.850 157.014 L 255.200 157 258.600 160.400 C 261.451 163.251, 262 164.521, 262 168.264 C 262 177.275, 255.983 179.986, 235.884 180.028 C 223.557 180.055, 189.163 182.309, 184.500 183.396 C 183.400 183.653, 178.900 184.388, 174.500 185.030 C 170.100 185.671, 163.125 186.885, 159 187.727 C 154.875 188.569, 149.700 189.616, 147.500 190.054 C 145.300 190.491, 141.700 191.358, 139.500 191.981 C 137.300 192.603, 134.150 193.472, 132.500 193.910 C 123.533 196.295, 112.341 200.462, 111.250 201.823 C 109.707 203.747, 109.533 269.803, 110.997 297.376 C 112.539 326.399, 117.365 345.034, 129.645 369.381 C 141.754 393.388, 167.329 424.308, 189.222 441.408 C 206.090 454.583, 214.622 460.410, 232.420 470.907 C 238.453 474.465, 249.361 479.960, 250.435 479.981 C 251.423 480.001, 263.176 474.074, 268.407 470.918 C 270.108 469.891, 273.249 468.027, 275.386 466.776 C 279.648 464.279, 280.434 463.791, 286.922 459.609 C 289.353 458.041, 291.828 456.358, 292.422 455.869 C 293.015 455.380, 297.622 451.933, 302.660 448.209 C 340.561 420.195, 369.939 381.674, 382.518 343.500 C 387.262 329.103, 389.876 314.586, 389.947 302.250 L 390 293 411.776 293 C 438.028 293, 455.738 291.080, 459.450 287.831 C 459.972 287.374, 461.058 287, 461.862 287 C 464.772 287, 479.283 277.591, 484.826 272.110 C 491.058 265.949, 492.501 264.204, 495.671 259 C 505.088 243.539, 508.811 228.161, 506.917 212.546 C 505.971 204.749, 503.182 194.120, 500.738 189 C 497.730 182.696, 490.613 172.978, 485.313 167.937 C 476.086 159.160, 469.104 154.857, 456.935 150.449 C 450.101 147.973, 448.288 147.756, 434.500 147.761 C 420.922 147.766, 418.789 148.014, 412 150.376 C 407.875 151.812, 404.387 152.989, 404.250 152.993 C 404.113 152.997, 403.991 151.088, 403.980 148.750 C 403.930 137.879, 399.186 121.416, 393.897 113.756 C 390.946 109.484, 380.307 98.913, 376.500 96.470 C 366.866 90.290, 352.802 85.988, 342.323 86.015 C 335.635 86.033, 323.024 88.975, 316.848 91.959 C 314.525 93.082, 312.146 93.993, 311.562 93.984 C 310.978 93.975, 309.253 90.020, 307.728 85.194 C 305.025 76.639, 295.996 58.853, 292.664 55.522 C 291.749 54.606, 291 53.419, 291 52.883 C 291 52.347, 286.163 47.054, 280.250 41.120 C 268.892 29.721, 259.439 22.798, 246.831 16.648 C 238.163 12.419, 237.140 12.064, 221 7.679 C 214.335 5.868, 190.333 4.882, 180 5.994 M 240.643 249.043 C 235.187 250.415, 231.227 252.778, 225.669 257.979 C 215.135 267.838, 211.565 281.624, 216.160 294.708 C 219.120 303.136, 224.294 309.714, 231.730 314.500 C 238.429 318.812, 239.008 320.151, 236.375 325.241 C 235.482 326.969, 234.397 329.534, 233.965 330.942 C 233.532 332.349, 231.748 337.325, 230 342 C 228.252 346.675, 226.454 351.625, 226.004 353 C 225.554 354.375, 223.616 359.663, 221.697 364.750 L 218.207 374 250.710 374 C 281.279 374, 283.170 373.896, 282.481 372.250 C 282.078 371.288, 280.873 368.025, 279.804 365 C 278.734 361.975, 277.472 358.600, 277 357.500 C 276.528 356.400, 274.933 352.125, 273.456 348 C 269.414 336.717, 265.408 325.832, 264.165 322.759 C 262.654 319.024, 263.438 317.557, 268.056 315.475 C 273.172 313.168, 281.446 304.373, 284.223 298.291 C 286.903 292.422, 287.378 277.650, 285.070 272 C 278.978 257.092, 267.951 249.070, 252.656 248.420 C 248.170 248.230, 242.764 248.510, 240.643 249.043" stroke="none" fill="url(#gradient)" fill-rule="evenodd"/>
    
    <g id="svgGroup" stroke-linecap="round" fill-rule="evenodd" font-size="20pt" stroke="none" stroke-width="0" fill="#FA7275" transform="translate(600, 135)">
    <!-- <g id="svgGroup" stroke-linecap="round" fill-rule="evenodd" font-size="20pt" stroke="none" stroke-width="0" fill="#37acb6" transform="translate(600, 135)"> -->
        <path d="M 204.603 90.901 L 156.303 90.901 A 54.781 54.781 0 0 0 147.163 77.253 A 46.976 46.976 0 0 0 136.053 68.401 A 56.315 56.315 0 0 0 114.701 61.431 A 71.285 71.285 0 0 0 105.903 60.901 A 66.835 66.835 0 0 0 86.597 63.607 A 58.11 58.11 0 0 0 73.353 69.451 Q 59.103 78.001 51.153 93.601 A 71.274 71.274 0 0 0 44.515 114.03 A 95.503 95.503 0 0 0 43.203 130.201 A 91.419 91.419 0 0 0 45.129 149.379 A 71.294 71.294 0 0 0 51.153 166.651 Q 59.103 182.401 73.353 190.951 A 60.282 60.282 0 0 0 99.732 199.249 A 74.164 74.164 0 0 0 105.903 199.501 A 64.949 64.949 0 0 0 122.46 197.468 A 53.744 53.744 0 0 0 136.053 191.851 A 49.623 49.623 0 0 0 153.91 173.709 A 61.958 61.958 0 0 0 156.303 169.201 L 204.603 169.201 A 98.881 98.881 0 0 1 187.504 201.181 A 91.301 91.301 0 0 1 167.853 219.151 A 103.196 103.196 0 0 1 119.419 236.347 A 130.791 130.791 0 0 1 106.203 237.001 A 113.632 113.632 0 0 1 70.988 231.669 A 102.672 102.672 0 0 1 52.053 223.351 Q 27.903 209.701 13.953 185.401 A 105.551 105.551 0 0 1 0.493 141.557 A 129.243 129.243 0 0 1 0.003 130.201 A 117.244 117.244 0 0 1 4.792 96.205 A 102.815 102.815 0 0 1 13.953 74.851 Q 27.903 50.401 52.053 36.751 A 106.22 106.22 0 0 1 98.794 23.315 A 127.286 127.286 0 0 1 106.203 23.101 A 115.553 115.553 0 0 1 141.517 28.332 A 100.442 100.442 0 0 1 167.703 41.101 Q 194.103 59.101 204.603 90.901 Z M 685.803 137.701 L 685.803 235.201 L 643.803 235.201 L 643.803 143.401 Q 643.803 129.037 638.593 119.489 A 32.223 32.223 0 0 0 633.903 112.951 Q 624.003 102.301 606.903 102.301 A 45.958 45.958 0 0 0 595.346 103.677 A 32.63 32.63 0 0 0 579.453 112.951 A 34.494 34.494 0 0 0 571.611 126.849 Q 569.989 132.189 569.559 138.613 A 71.595 71.595 0 0 0 569.403 143.401 L 569.403 235.201 L 527.403 235.201 L 527.403 13.201 L 569.403 13.201 L 569.403 89.701 A 53.272 53.272 0 0 1 586.522 75.003 A 64.717 64.717 0 0 1 591.003 72.751 Q 604.503 66.601 621.003 66.601 A 74.065 74.065 0 0 1 639.899 68.93 A 62.256 62.256 0 0 1 654.603 74.851 A 56.289 56.289 0 0 1 676.361 96.933 A 68.437 68.437 0 0 1 677.553 99.151 A 71.861 71.861 0 0 1 684.109 118.635 Q 685.803 127.506 685.803 137.701 Z M 1175.403 25.801 L 1220.103 25.801 L 1143.303 235.201 L 1092.303 235.201 L 1015.503 25.801 L 1060.503 25.801 L 1118.103 192.301 L 1175.403 25.801 Z M 1563.303 69.001 L 1605.603 69.001 L 1605.603 235.201 L 1563.303 235.201 L 1563.303 214.201 Q 1555.203 225.001 1542.153 231.151 A 65.373 65.373 0 0 1 1514.995 237.292 A 75.479 75.479 0 0 1 1513.803 237.301 A 78.483 78.483 0 0 1 1494.89 235.108 A 64.213 64.213 0 0 1 1479.303 229.051 A 57.8 57.8 0 0 1 1456.569 206.239 A 69.635 69.635 0 0 1 1455.753 204.751 A 70.794 70.794 0 0 1 1448.725 184.138 A 97.439 97.439 0 0 1 1447.203 166.501 L 1447.203 69.001 L 1489.203 69.001 L 1489.203 160.501 Q 1489.203 174.866 1494.413 184.414 A 32.223 32.223 0 0 0 1499.103 190.951 Q 1509.003 201.601 1526.103 201.601 A 45.729 45.729 0 0 0 1537.64 200.226 A 32.05 32.05 0 0 0 1553.403 190.951 Q 1561.976 181.729 1563.125 165.645 A 72.202 72.202 0 0 0 1563.303 160.501 L 1563.303 69.001 Z M 366.003 211.501 L 366.003 314.401 L 324.003 314.401 L 324.003 69.001 L 366.003 69.001 L 366.003 93.001 A 59.293 59.293 0 0 1 379.663 79.375 A 75.756 75.756 0 0 1 388.353 73.951 A 64.319 64.319 0 0 1 411.467 66.841 A 80.505 80.505 0 0 1 420.903 66.301 A 74.146 74.146 0 0 1 450.503 72.177 A 71.533 71.533 0 0 1 459.453 76.801 A 72.8 72.8 0 0 1 484.637 102.812 A 88.071 88.071 0 0 1 486.753 106.651 A 88.403 88.403 0 0 1 495.615 134.697 A 114.937 114.937 0 0 1 496.803 151.501 Q 496.803 177.001 486.753 196.651 A 79.857 79.857 0 0 1 471.831 217.314 A 71.746 71.746 0 0 1 459.453 227.101 Q 442.203 237.901 420.903 237.901 Q 402.603 237.901 388.653 230.401 A 73.473 73.473 0 0 1 373.271 219.508 A 63.91 63.91 0 0 1 366.003 211.501 Z M 879.003 164.701 L 757.503 164.701 A 51.923 51.923 0 0 0 760.058 177.34 A 37.202 37.202 0 0 0 770.103 192.901 A 38.386 38.386 0 0 0 795.15 203.051 A 49.811 49.811 0 0 0 797.403 203.101 A 42.155 42.155 0 0 0 811.287 200.944 Q 822.95 196.896 829.514 185.257 A 45.69 45.69 0 0 0 830.703 183.001 L 876.003 183.001 Q 868.803 207.001 848.403 222.451 Q 828.003 237.901 798.303 237.901 A 92.672 92.672 0 0 1 771.713 234.196 A 81.067 81.067 0 0 1 755.253 227.251 Q 736.203 216.601 725.553 197.101 A 86.692 86.692 0 0 1 715.841 166.713 A 110.533 110.533 0 0 1 714.903 152.101 Q 714.903 126.301 725.403 106.801 Q 735.903 87.301 754.803 76.801 A 83.2 83.2 0 0 1 784.916 67.132 A 105.051 105.051 0 0 1 798.303 66.301 A 94.51 94.51 0 0 1 823.399 69.529 A 81.054 81.054 0 0 1 840.753 76.501 Q 859.503 86.701 869.853 105.451 A 83.083 83.083 0 0 1 879.473 135.984 A 104.638 104.638 0 0 1 880.203 148.501 A 116.063 116.063 0 0 1 879.908 156.988 A 84.723 84.723 0 0 1 879.003 164.701 Z M 1365.303 92.701 L 1365.303 69.001 L 1407.603 69.001 L 1407.603 235.201 L 1365.303 235.201 L 1365.303 210.901 A 59.063 59.063 0 0 1 1350.482 225.628 A 74.038 74.038 0 0 1 1342.953 230.251 A 63.929 63.929 0 0 1 1321.303 237.154 A 81.504 81.504 0 0 1 1310.103 237.901 Q 1289.103 237.901 1271.853 227.101 A 74.202 74.202 0 0 1 1247.178 201.426 A 89.856 89.856 0 0 1 1244.553 196.651 A 91.159 91.159 0 0 1 1235.509 167.052 A 116.645 116.645 0 0 1 1234.503 151.501 A 107.712 107.712 0 0 1 1237.175 127.029 A 87.031 87.031 0 0 1 1244.553 106.801 A 78.168 78.168 0 0 1 1259.026 86.818 A 69.866 69.866 0 0 1 1271.853 76.801 A 72.546 72.546 0 0 1 1309.738 66.304 A 86.031 86.031 0 0 1 1310.403 66.301 A 78.303 78.303 0 0 1 1326.819 67.949 A 60.718 60.718 0 0 1 1342.953 73.801 A 71.39 71.39 0 0 1 1357.228 83.777 A 60.598 60.598 0 0 1 1365.303 92.701 Z M 1816.503 103.501 L 1779.303 103.501 L 1779.303 183.901 A 27.547 27.547 0 0 0 1779.623 188.259 Q 1779.988 190.529 1780.767 192.322 A 10.948 10.948 0 0 0 1783.353 196.051 Q 1787.136 199.554 1795.762 199.785 A 46.406 46.406 0 0 0 1797.003 199.801 L 1816.503 199.801 L 1816.503 235.201 L 1790.103 235.201 Q 1737.003 235.201 1737.003 183.601 L 1737.003 103.501 L 1717.203 103.501 L 1717.203 69.001 L 1737.003 69.001 L 1737.003 27.901 L 1779.303 27.901 L 1779.303 69.001 L 1816.503 69.001 L 1816.503 103.501 Z M 1003.803 66.601 L 1003.803 110.701 L 992.703 110.701 Q 979.598 110.701 970.765 114.775 A 30.112 30.112 0 0 0 962.853 120.001 A 26.351 26.351 0 0 0 956.535 129.373 Q 953.104 137.604 952.827 150.166 A 101.604 101.604 0 0 0 952.803 152.401 L 952.803 235.201 L 910.803 235.201 L 910.803 69.001 L 952.803 69.001 L 952.803 94.801 Q 960.903 81.601 973.953 74.101 A 56.55 56.55 0 0 1 996.632 66.96 A 70.185 70.185 0 0 1 1003.803 66.601 Z M 1647.003 13.201 L 1689.003 13.201 L 1689.003 235.201 L 1647.003 235.201 L 1647.003 13.201 Z M 240.603 69.001 L 282.603 69.001 L 282.603 235.201 L 240.603 235.201 L 240.603 69.001 Z M 1365.303 152.101 A 65.266 65.266 0 0 0 1364.154 139.547 A 47.186 47.186 0 0 0 1359.303 125.851 A 43.619 43.619 0 0 0 1349.068 113.206 A 41.16 41.16 0 0 0 1343.103 109.051 Q 1332.903 103.201 1321.203 103.201 Q 1309.503 103.201 1299.603 108.901 Q 1289.703 114.601 1283.553 125.551 A 47.156 47.156 0 0 0 1278.268 140.821 A 63.307 63.307 0 0 0 1277.403 151.501 A 61.836 61.836 0 0 0 1278.846 165.153 A 48.317 48.317 0 0 0 1283.553 177.751 A 47.288 47.288 0 0 0 1292.099 189.133 A 41.628 41.628 0 0 0 1299.753 195.001 Q 1309.803 201.001 1321.203 201.001 Q 1332.903 201.001 1343.103 195.151 Q 1353.303 189.301 1359.303 178.351 A 47.38 47.38 0 0 0 1364.235 164.237 A 65.661 65.661 0 0 0 1365.303 152.101 Z M 453.903 151.501 A 61.56 61.56 0 0 0 452.64 138.739 A 46.35 46.35 0 0 0 447.753 125.551 A 45.195 45.195 0 0 0 439.075 114.399 A 40.347 40.347 0 0 0 431.553 108.901 Q 421.503 103.201 409.803 103.201 Q 398.403 103.201 388.353 109.051 A 42.482 42.482 0 0 0 373.96 122.983 A 51.783 51.783 0 0 0 372.153 126.001 A 48.387 48.387 0 0 0 366.797 141.824 A 64.03 64.03 0 0 0 366.003 152.101 A 61.682 61.682 0 0 0 367.354 165.307 A 47.314 47.314 0 0 0 372.153 178.201 A 46.196 46.196 0 0 0 380.827 189.528 A 40.974 40.974 0 0 0 388.353 195.151 Q 398.403 201.001 409.803 201.001 Q 421.503 201.001 431.553 195.001 A 43.734 43.734 0 0 0 446.154 180.597 A 52.769 52.769 0 0 0 447.753 177.901 A 48.064 48.064 0 0 0 452.964 162.814 A 65.278 65.278 0 0 0 453.903 151.501 Z M 757.803 136.501 L 836.703 136.501 A 37.914 37.914 0 0 0 834.475 123.982 A 32.12 32.12 0 0 0 825.003 110.551 Q 813.603 100.801 797.103 100.801 A 42.542 42.542 0 0 0 783.566 102.878 A 36.277 36.277 0 0 0 770.853 110.251 A 38.066 38.066 0 0 0 760.109 126.719 A 53.311 53.311 0 0 0 757.803 136.501 Z M 252.613 47.754 A 28.705 28.705 0 0 0 261.903 49.201 A 33.246 33.246 0 0 0 264.119 49.129 A 25.101 25.101 0 0 0 280.353 42.151 A 23.547 23.547 0 0 0 285.749 34.512 A 24.604 24.604 0 0 0 287.703 24.601 A 29.545 29.545 0 0 0 287.696 23.949 A 23.233 23.233 0 0 0 280.353 7.051 A 24.481 24.481 0 0 0 271.192 1.449 A 28.705 28.705 0 0 0 261.903 0.001 A 33.246 33.246 0 0 0 259.687 0.074 A 25.101 25.101 0 0 0 243.453 7.051 A 23.547 23.547 0 0 0 238.057 14.691 A 24.604 24.604 0 0 0 236.103 24.601 A 29.545 29.545 0 0 0 236.11 25.254 A 23.233 23.233 0 0 0 243.453 42.151 A 24.481 24.481 0 0 0 252.613 47.754 Z" vector-effect="non-scaling-stroke"/>
    </g>
</svg>