<svg xmlns="http://www.w3.org/2000/svg" width="2400" height="480" viewBox="0 0 2400 485" version="1.1">
  <path d="M 180 5.994 C 171.439 6.916, 160.034 9.755, 152 12.964 C 146.575 15.131, 133.445 21.717, 131.500 23.248 C 130.950 23.680, 127.350 26.372, 123.500 29.229 C 101.484 45.569, 87.394 67.439, 78.872 98.500 C 76.745 106.250, 77.041 141.780, 79.291 148.932 C 80.231 151.919, 81 154.676, 81 155.058 C 81 155.441, 75.713 155.970, 69.250 156.235 C 61.963 156.533, 55.601 157.366, 52.500 158.427 C 45.870 160.697, 35.741 165.671, 33.387 167.813 C 32.349 168.757, 29.370 171.258, 26.768 173.371 C 13.764 183.925, 3.952 205.461, 4.020 223.299 C 4.030 226.160, 4.654 231.875, 5.406 236 C 6.728 243.253, 7.258 245.243, 9 249.500 C 9.450 250.600, 10.074 252.175, 10.387 253 C 11.737 256.568, 16.847 264.297, 21.108 269.217 C 27.992 277.165, 37.335 283.851, 47 287.744 C 48.375 288.298, 50.715 289.237, 52.201 289.832 C 56.490 291.548, 70.817 293.137, 79 292.805 L 86.500 292.500 86.759 239.766 L 87.018 187.032 90.759 185.131 C 97.326 181.796, 121.713 173.011, 131.774 170.357 C 164.044 161.843, 202.199 157.044, 237.850 157.014 L 255.200 157 258.600 160.400 C 261.451 163.251, 262 164.521, 262 168.264 C 262 177.275, 255.983 179.986, 235.884 180.028 C 223.557 180.055, 189.163 182.309, 184.500 183.396 C 183.400 183.653, 178.900 184.388, 174.500 185.030 C 170.100 185.671, 163.125 186.885, 159 187.727 C 154.875 188.569, 149.700 189.616, 147.500 190.054 C 145.300 190.491, 141.700 191.358, 139.500 191.981 C 137.300 192.603, 134.150 193.472, 132.500 193.910 C 123.533 196.295, 112.341 200.462, 111.250 201.823 C 109.707 203.747, 109.533 269.803, 110.997 297.376 C 112.539 326.399, 117.365 345.034, 129.645 369.381 C 141.754 393.388, 167.329 424.308, 189.222 441.408 C 206.090 454.583, 214.622 460.410, 232.420 470.907 C 238.453 474.465, 249.361 479.960, 250.435 479.981 C 251.423 480.001, 263.176 474.074, 268.407 470.918 C 270.108 469.891, 273.249 468.027, 275.386 466.776 C 279.648 464.279, 280.434 463.791, 286.922 459.609 C 289.353 458.041, 291.828 456.358, 292.422 455.869 C 293.015 455.380, 297.622 451.933, 302.660 448.209 C 340.561 420.195, 369.939 381.674, 382.518 343.500 C 387.262 329.103, 389.876 314.586, 389.947 302.250 L 390 293 411.776 293 C 438.028 293, 455.738 291.080, 459.450 287.831 C 459.972 287.374, 461.058 287, 461.862 287 C 464.772 287, 479.283 277.591, 484.826 272.110 C 491.058 265.949, 492.501 264.204, 495.671 259 C 505.088 243.539, 508.811 228.161, 506.917 212.546 C 505.971 204.749, 503.182 194.120, 500.738 189 C 497.730 182.696, 490.613 172.978, 485.313 167.937 C 476.086 159.160, 469.104 154.857, 456.935 150.449 C 450.101 147.973, 448.288 147.756, 434.500 147.761 C 420.922 147.766, 418.789 148.014, 412 150.376 C 407.875 151.812, 404.387 152.989, 404.250 152.993 C 404.113 152.997, 403.991 151.088, 403.980 148.750 C 403.930 137.879, 399.186 121.416, 393.897 113.756 C 390.946 109.484, 380.307 98.913, 376.500 96.470 C 366.866 90.290, 352.802 85.988, 342.323 86.015 C 335.635 86.033, 323.024 88.975, 316.848 91.959 C 314.525 93.082, 312.146 93.993, 311.562 93.984 C 310.978 93.975, 309.253 90.020, 307.728 85.194 C 305.025 76.639, 295.996 58.853, 292.664 55.522 C 291.749 54.606, 291 53.419, 291 52.883 C 291 52.347, 286.163 47.054, 280.250 41.120 C 268.892 29.721, 259.439 22.798, 246.831 16.648 C 238.163 12.419, 237.140 12.064, 221 7.679 C 214.335 5.868, 190.333 4.882, 180 5.994 M 240.643 249.043 C 235.187 250.415, 231.227 252.778, 225.669 257.979 C 215.135 267.838, 211.565 281.624, 216.160 294.708 C 219.120 303.136, 224.294 309.714, 231.730 314.500 C 238.429 318.812, 239.008 320.151, 236.375 325.241 C 235.482 326.969, 234.397 329.534, 233.965 330.942 C 233.532 332.349, 231.748 337.325, 230 342 C 228.252 346.675, 226.454 351.625, 226.004 353 C 225.554 354.375, 223.616 359.663, 221.697 364.750 L 218.207 374 250.710 374 C 281.279 374, 283.170 373.896, 282.481 372.250 C 282.078 371.288, 280.873 368.025, 279.804 365 C 278.734 361.975, 277.472 358.600, 277 357.500 C 276.528 356.400, 274.933 352.125, 273.456 348 C 269.414 336.717, 265.408 325.832, 264.165 322.759 C 262.654 319.024, 263.438 317.557, 268.056 315.475 C 273.172 313.168, 281.446 304.373, 284.223 298.291 C 286.903 292.422, 287.378 277.650, 285.070 272 C 278.978 257.092, 267.951 249.070, 252.656 248.420 C 248.170 248.230, 242.764 248.510, 240.643 249.043" stroke="none" fill="#ffffff" fill-rule="evenodd"/>
  
  <g id="svgGroup" stroke-linecap="round" fill-rule="evenodd" font-size="20pt" stroke="none" stroke-width="0" fill="#ffffff" transform="translate(600, 135)">
    <path d="M 190.963 72.52 L 145.883 72.52 Q 139.163 58.52 126.983 51.52 A 52.561 52.561 0 0 0 107.055 45.014 A 66.533 66.533 0 0 0 98.843 44.52 Q 81.763 44.52 68.463 52.5 A 54.355 54.355 0 0 0 47.976 74.587 A 64.628 64.628 0 0 0 47.743 75.04 A 66.522 66.522 0 0 0 41.547 94.107 A 89.136 89.136 0 0 0 40.323 109.2 A 85.325 85.325 0 0 0 42.12 127.099 A 66.541 66.541 0 0 0 47.743 143.22 Q 55.163 157.92 68.463 165.9 A 56.263 56.263 0 0 0 93.083 173.644 A 69.22 69.22 0 0 0 98.843 173.88 A 60.619 60.619 0 0 0 114.296 171.982 A 50.161 50.161 0 0 0 126.983 166.74 A 46.315 46.315 0 0 0 143.649 149.808 A 57.827 57.827 0 0 0 145.883 145.6 L 190.963 145.6 A 92.289 92.289 0 0 1 175.003 175.447 A 85.214 85.214 0 0 1 156.663 192.22 A 96.316 96.316 0 0 1 111.458 208.27 A 122.072 122.072 0 0 1 99.123 208.88 A 106.056 106.056 0 0 1 66.255 203.903 A 95.827 95.827 0 0 1 48.583 196.14 Q 26.043 183.4 13.023 160.72 Q 0.003 138.04 0.003 109.2 A 109.428 109.428 0 0 1 4.473 77.47 A 95.961 95.961 0 0 1 13.023 57.54 Q 26.043 34.72 48.583 21.98 A 99.139 99.139 0 0 1 92.208 9.439 A 118.8 118.8 0 0 1 99.123 9.24 A 107.85 107.85 0 0 1 132.082 14.122 A 93.746 93.746 0 0 1 156.523 26.04 Q 181.163 42.84 190.963 72.52 Z M 731.643 116.2 L 731.643 207.2 L 692.443 207.2 L 692.443 121.52 A 59.248 59.248 0 0 0 691.471 110.435 Q 690.269 104.131 687.58 99.201 A 30.074 30.074 0 0 0 683.203 93.1 A 30.49 30.49 0 0 0 665.563 83.781 A 44.076 44.076 0 0 0 658.003 83.16 A 42.894 42.894 0 0 0 647.216 84.444 A 30.455 30.455 0 0 0 632.383 93.1 A 32.194 32.194 0 0 0 625.064 106.071 Q 623.55 111.055 623.148 117.05 A 66.822 66.822 0 0 0 623.003 121.52 L 623.003 207.2 L 583.803 207.2 L 583.803 0 L 623.003 0 L 623.003 71.4 A 49.721 49.721 0 0 1 638.98 57.681 A 60.403 60.403 0 0 1 643.163 55.58 A 64.257 64.257 0 0 1 664.328 50.135 A 77.88 77.88 0 0 1 671.163 49.84 A 69.128 69.128 0 0 1 688.799 52.013 A 58.106 58.106 0 0 1 702.523 57.54 A 52.537 52.537 0 0 1 722.83 78.149 A 63.875 63.875 0 0 1 723.943 80.22 Q 731.425 94.776 731.636 115.015 A 113.163 113.163 0 0 1 731.643 116.2 Z M 1188.603 11.76 L 1230.323 11.76 L 1158.643 207.2 L 1111.043 207.2 L 1039.363 11.76 L 1081.363 11.76 L 1135.123 167.16 L 1188.603 11.76 Z M 331.243 52.08 L 372.963 52.08 L 276.923 280.56 L 235.203 280.56 L 268.803 203.28 L 206.643 52.08 L 250.603 52.08 L 290.643 160.44 L 331.243 52.08 Z M 1550.643 52.08 L 1590.123 52.08 L 1590.123 207.2 L 1550.643 207.2 L 1550.643 187.6 A 51.299 51.299 0 0 1 1532.593 202.591 A 60.415 60.415 0 0 1 1530.903 203.42 Q 1518.723 209.16 1504.443 209.16 A 73.251 73.251 0 0 1 1486.791 207.113 A 59.932 59.932 0 0 1 1472.243 201.46 A 53.947 53.947 0 0 1 1451.024 180.168 A 64.992 64.992 0 0 1 1450.263 178.78 A 66.074 66.074 0 0 1 1443.703 159.541 A 90.943 90.943 0 0 1 1442.283 143.08 L 1442.283 52.08 L 1481.483 52.08 L 1481.483 137.48 A 59.248 59.248 0 0 0 1482.454 148.565 Q 1483.656 154.869 1486.346 159.799 A 30.074 30.074 0 0 0 1490.723 165.9 A 30.49 30.49 0 0 0 1508.363 175.219 A 44.076 44.076 0 0 0 1515.923 175.84 A 42.68 42.68 0 0 0 1526.691 174.556 A 29.913 29.913 0 0 0 1541.403 165.9 A 32.233 32.233 0 0 0 1548.544 153.154 Q 1550.052 148.218 1550.477 142.28 A 67.389 67.389 0 0 0 1550.643 137.48 L 1550.643 52.08 Z M 433.163 185.08 L 433.163 281.12 L 393.963 281.12 L 393.963 52.08 L 433.163 52.08 L 433.163 74.48 A 55.34 55.34 0 0 1 445.913 61.762 A 70.706 70.706 0 0 1 454.023 56.7 A 60.031 60.031 0 0 1 475.596 50.064 A 75.138 75.138 0 0 1 484.403 49.56 A 69.203 69.203 0 0 1 512.03 55.044 A 66.764 66.764 0 0 1 520.383 59.36 A 67.947 67.947 0 0 1 543.888 83.637 A 82.2 82.2 0 0 1 545.863 87.22 A 82.51 82.51 0 0 1 554.134 113.396 A 107.274 107.274 0 0 1 555.243 129.08 Q 555.243 152.88 545.863 171.22 Q 536.483 189.56 520.383 199.64 Q 504.283 209.72 484.403 209.72 Q 467.323 209.72 454.303 202.72 A 68.575 68.575 0 0 1 439.947 192.553 A 59.649 59.649 0 0 1 433.163 185.08 Z M 911.963 141.4 L 798.563 141.4 A 48.462 48.462 0 0 0 800.948 153.196 A 34.722 34.722 0 0 0 810.323 167.72 Q 820.683 177.24 835.803 177.24 A 39.344 39.344 0 0 0 848.761 175.226 Q 859.647 171.449 865.773 160.585 A 42.644 42.644 0 0 0 866.883 158.48 L 909.163 158.48 Q 902.443 180.88 883.403 195.3 A 70.394 70.394 0 0 1 851.153 208.642 A 94.344 94.344 0 0 1 836.643 209.72 A 86.494 86.494 0 0 1 811.825 206.262 A 75.663 75.663 0 0 1 796.463 199.78 Q 778.683 189.84 768.743 171.64 A 80.913 80.913 0 0 1 759.679 143.278 A 103.164 103.164 0 0 1 758.803 129.64 A 100.184 100.184 0 0 1 761.177 107.361 A 78.911 78.911 0 0 1 768.603 87.36 Q 778.403 69.16 796.043 59.36 A 77.653 77.653 0 0 1 824.148 50.335 A 98.048 98.048 0 0 1 836.643 49.56 A 88.209 88.209 0 0 1 860.066 52.572 A 75.65 75.65 0 0 1 876.263 59.08 Q 893.763 68.6 903.423 86.1 A 77.544 77.544 0 0 1 912.401 114.597 A 97.662 97.662 0 0 1 913.083 126.28 A 108.325 108.325 0 0 1 912.807 134.201 A 79.075 79.075 0 0 1 911.963 141.4 Z M 1365.843 74.2 L 1365.843 52.08 L 1405.323 52.08 L 1405.323 207.2 L 1365.843 207.2 L 1365.843 184.52 A 55.126 55.126 0 0 1 1352.01 198.265 A 69.102 69.102 0 0 1 1344.983 202.58 Q 1331.683 209.72 1314.323 209.72 Q 1294.723 209.72 1278.623 199.64 A 69.255 69.255 0 0 1 1255.593 175.676 A 83.866 83.866 0 0 1 1253.143 171.22 A 85.082 85.082 0 0 1 1244.702 143.594 A 108.868 108.868 0 0 1 1243.763 129.08 A 117.662 117.662 0 0 1 1243.763 128.713 Q 1243.801 116.519 1246.369 105.761 A 81.096 81.096 0 0 1 1253.143 87.36 A 72.957 72.957 0 0 1 1266.65 68.709 A 65.208 65.208 0 0 1 1278.623 59.36 A 67.71 67.71 0 0 1 1313.982 49.562 A 80.305 80.305 0 0 1 1314.603 49.56 A 73.083 73.083 0 0 1 1329.924 51.098 A 56.67 56.67 0 0 1 1344.983 56.56 A 66.63 66.63 0 0 1 1358.306 65.87 A 56.558 56.558 0 0 1 1365.843 74.2 Z M 1786.963 84.28 L 1752.243 84.28 L 1752.243 159.32 A 25.71 25.71 0 0 0 1752.542 163.387 Q 1753.306 168.144 1756.023 170.66 Q 1759.554 173.929 1767.604 174.145 A 43.312 43.312 0 0 0 1768.763 174.16 L 1786.963 174.16 L 1786.963 207.2 L 1762.323 207.2 A 73.716 73.716 0 0 1 1743.012 204.895 Q 1720.916 198.883 1714.96 177.187 A 68.648 68.648 0 0 1 1712.763 159.04 L 1712.763 84.28 L 1694.283 84.28 L 1694.283 52.08 L 1712.763 52.08 L 1712.763 13.72 L 1752.243 13.72 L 1752.243 52.08 L 1786.963 52.08 L 1786.963 84.28 Z M 1028.443 49.84 L 1028.443 91 L 1018.083 91 Q 999.603 91 990.223 99.68 A 24.594 24.594 0 0 0 984.326 108.427 Q 981.123 116.109 980.865 127.834 A 94.828 94.828 0 0 0 980.843 129.92 L 980.843 207.2 L 941.643 207.2 L 941.643 52.08 L 980.843 52.08 L 980.843 76.16 Q 988.403 63.84 1000.583 56.84 A 52.78 52.78 0 0 1 1021.75 50.175 A 65.506 65.506 0 0 1 1028.443 49.84 Z M 1628.763 0 L 1667.963 0 L 1667.963 207.2 L 1628.763 207.2 L 1628.763 0 Z M 1365.843 129.64 Q 1365.843 115.36 1360.243 105.14 A 40.711 40.711 0 0 0 1350.69 93.337 A 38.416 38.416 0 0 0 1345.123 89.46 Q 1335.603 84 1324.683 84 Q 1313.763 84 1304.523 89.32 A 38.998 38.998 0 0 0 1291.52 101.638 A 47.874 47.874 0 0 0 1289.543 104.86 A 44.012 44.012 0 0 0 1284.61 119.112 A 59.087 59.087 0 0 0 1283.803 129.08 A 57.714 57.714 0 0 0 1285.149 141.821 A 45.096 45.096 0 0 0 1289.543 153.58 A 44.136 44.136 0 0 0 1297.519 164.202 A 38.852 38.852 0 0 0 1304.663 169.68 Q 1314.043 175.28 1324.683 175.28 Q 1335.603 175.28 1345.123 169.82 A 39.251 39.251 0 0 0 1359.709 155.088 A 46.801 46.801 0 0 0 1360.243 154.14 A 44.221 44.221 0 0 0 1364.846 140.966 A 61.284 61.284 0 0 0 1365.843 129.64 Z M 515.203 129.08 Q 515.203 115.08 509.463 104.86 Q 503.723 94.64 494.343 89.32 Q 484.963 84 474.043 84 Q 463.403 84 454.023 89.46 A 39.65 39.65 0 0 0 440.589 102.463 A 48.331 48.331 0 0 0 438.903 105.28 A 45.161 45.161 0 0 0 433.904 120.048 A 59.762 59.762 0 0 0 433.163 129.64 A 57.569 57.569 0 0 0 434.424 141.965 A 44.16 44.16 0 0 0 438.903 154 A 43.116 43.116 0 0 0 446.998 164.571 A 38.242 38.242 0 0 0 454.023 169.82 Q 463.403 175.28 474.043 175.28 Q 484.963 175.28 494.343 169.68 Q 503.723 164.08 509.463 153.72 A 44.86 44.86 0 0 0 514.327 139.638 A 60.926 60.926 0 0 0 515.203 129.08 Z M 798.843 115.08 L 872.483 115.08 A 35.387 35.387 0 0 0 870.403 103.395 A 29.979 29.979 0 0 0 861.563 90.86 A 37.727 37.727 0 0 0 839.529 81.921 A 49.113 49.113 0 0 0 835.523 81.76 A 39.706 39.706 0 0 0 822.888 83.698 A 33.858 33.858 0 0 0 811.023 90.58 A 35.528 35.528 0 0 0 800.995 105.95 A 49.757 49.757 0 0 0 798.843 115.08 Z" vector-effect="non-scaling-stroke"/>
  </g>
</svg>